<?xml version="1.0" encoding="utf-8"?><svg xml:space="preserve" viewBox="0 0 100 100" y="0" x="0" xmlns="http://www.w3.org/2000/svg" id="圖層_1" version="1.1" width="200px" height="200px" xmlns:xlink="http://www.w3.org/1999/xlink" style="width:100%;height:100%;animation-play-state:paused" ><g class="ldl-scale" style="transform-origin:50% 50% 0px;transform:rotate(0deg) scale(0.8);animation-play-state:paused" ><path stroke-miterlimit="10" stroke-linejoin="round" stroke-linecap="round" stroke-width="3.5" stroke="#333" fill="#e15b64" d="M56.172 82.307c-4.115-1.131-8.23-1.131-12.345 0-2.888.794-5.99.724-8.669-.615-6.565-3.283-9.41-11.579-4.715-18.064l8.561-11.824c5.35-7.39 16.343-7.438 21.759-.097l8.727 11.832c4.78 6.479 1.958 14.836-4.629 18.144-2.682 1.347-5.793 1.42-8.689.624z" style="stroke:rgb(130, 219, 184);fill:rgb(83, 171, 139);animation-play-state:paused" ></path>
<path stroke-miterlimit="10" stroke-linejoin="round" stroke-width="3.5" stroke="#fff" fill="none" stroke-linecap="round" d="M39.785 61.46l4.469-6.173c.358-.494.741-.956 1.146-1.385" style="stroke:rgb(21, 119, 89);animation-play-state:paused" ></path>
<path stroke-miterlimit="10" stroke-linejoin="round" stroke-width="3.5" stroke="#fff" fill="none" stroke-linecap="round" d="M36.157 66.394c.302-.453.572-.854.659-.974" style="stroke:rgb(21, 119, 89);animation-play-state:paused" ></path>
<path stroke-miterlimit="10" stroke-linejoin="round" stroke-linecap="round" stroke-width="3.5" stroke="#333" fill="#e15b64" d="M46.696 28.451c.892 7.819-2.119 12.705-8.015 13.378S28.75 38.42 27.858 30.601c-.892-7.819 3.614-12.876 8.015-13.378s9.93 3.409 10.823 11.228z" style="stroke:rgb(130, 219, 184);fill:rgb(83, 171, 139);animation-play-state:paused" ></path>
<path stroke-miterlimit="10" stroke-linejoin="round" stroke-linecap="round" stroke-width="3.5" stroke="#333" fill="#e15b64" d="M26.288 44.147c4.044 5.721 3.785 10.824-.529 13.874-4.314 3.049-9.211 1.591-13.255-4.13s-2.692-11.597.529-13.874 9.211-1.591 13.255 4.13z" style="stroke:rgb(130, 219, 184);fill:rgb(83, 171, 139);animation-play-state:paused" ></path>
<path stroke-miterlimit="10" stroke-linejoin="round" stroke-linecap="round" stroke-width="3.5" stroke="#333" fill="#e15b64" d="M73.712 44.147c-4.044 5.721-3.785 10.824.529 13.874 4.314 3.049 9.211 1.591 13.255-4.13s2.692-11.597-.529-13.874-9.211-1.591-13.255 4.13z" style="stroke:rgb(130, 219, 184);fill:rgb(83, 171, 139);animation-play-state:paused" ></path>
<path stroke-miterlimit="10" stroke-linejoin="round" stroke-linecap="round" stroke-width="3.5" stroke="#333" fill="#e15b64" d="M53.304 28.451c-.892 7.819 2.119 12.705 8.015 13.378s9.931-3.409 10.823-11.228-3.614-12.876-8.015-13.378c-4.401-.502-9.93 3.409-10.823 11.228z" style="stroke:rgb(130, 219, 184);fill:rgb(83, 171, 139);animation-play-state:paused" ></path>
<path stroke-linecap="round" stroke="#000" stroke-miterlimit="10" stroke-linejoin="round" stroke-width="3.5" opacity=".1" d="M69.491 63.538l-1.532-2.078c2.224 5.864-.636 12.342-6.246 15.16-2.683 1.348-5.794 1.421-8.69.625-4.115-1.131-8.23-1.131-12.345 0-2.888.794-5.99.724-8.668-.615a13.015 13.015 0 0 1-3.281-2.336c1.022 3.112 3.294 5.83 6.431 7.398 2.678 1.34 5.781 1.409 8.668.615 4.115-1.131 8.23-1.131 12.345 0 2.896.796 6.006.723 8.69-.625 6.585-3.308 9.408-11.665 4.628-18.144z" style="stroke:rgb(162, 253, 217);fill:rgb(162, 253, 217);animation-play-state:paused" ></path>
<path stroke-linecap="round" stroke="#000" stroke-miterlimit="10" stroke-linejoin="round" stroke-width="3.5" opacity=".1" d="M46.696 28.451c-.435-3.814-1.977-6.691-3.95-8.586.371 1.071.653 2.24.8 3.525.892 7.819-2.119 12.705-8.015 13.378-2.685.307-4.979-.384-6.771-1.954 1.677 5.037 5.199 7.554 9.921 7.016 5.895-.673 8.907-5.559 8.015-13.379z" style="stroke:rgb(162, 253, 217);fill:rgb(162, 253, 217);animation-play-state:paused" ></path>
<path stroke-linecap="round" stroke="#000" stroke-miterlimit="10" stroke-linejoin="round" stroke-width="3.5" opacity=".1" d="M26.288 44.147a15.285 15.285 0 0 0-1.107-1.374c1.676 4.188.789 7.811-2.571 10.186-3.832 2.709-8.122 1.852-11.868-2.381.404 1.092.98 2.205 1.763 3.312 4.044 5.721 8.941 7.18 13.255 4.13 4.314-3.048 4.573-8.151.528-13.873z" style="stroke:rgb(162, 253, 217);fill:rgb(162, 253, 217);animation-play-state:paused" ></path>
<path stroke-linecap="round" stroke="#000" stroke-miterlimit="10" stroke-linejoin="round" stroke-width="3.5" opacity=".1" d="M86.967 40.017c-.085-.06-.18-.11-.269-.166.462 2.62-.121 5.821-2.352 8.978-4.044 5.721-8.941 7.18-13.255 4.13-.063-.044-.116-.093-.177-.138.284 2.058 1.396 3.835 3.326 5.2 4.314 3.049 9.211 1.591 13.255-4.13 4.045-5.722 2.692-11.598-.528-13.874z" style="stroke:rgb(162, 253, 217);fill:rgb(162, 253, 217);animation-play-state:paused" ></path>
<path stroke-linecap="round" stroke="#000" stroke-miterlimit="10" stroke-linejoin="round" stroke-width="3.5" opacity=".1" d="M68.479 19.297c.557 1.801.782 3.894.515 6.242-.892 7.819-4.927 11.901-10.823 11.228-1.796-.205-3.32-.806-4.552-1.756 1.021 3.951 3.692 6.36 7.701 6.818 5.896.673 9.931-3.409 10.823-11.228.585-5.129-1.157-9.058-3.664-11.304z" style="stroke:rgb(162, 253, 217);fill:rgb(162, 253, 217);animation-play-state:paused" ></path>
<metadata xmlns:d="https://loading.io/stock/" style="animation-play-state:paused" ><d:name style="animation-play-state:paused" >paw</d:name>


<d:tags style="animation-play-state:paused" >paw,cat,claw,nail,meow,trace,trail,footprint,animal</d:tags>


<d:license style="animation-play-state:paused" >by</d:license>


<d:slug style="animation-play-state:paused" >lfucx4</d:slug></metadata></g><!-- generated by https://loading.io/ --></svg>